<svg
   xmlns:osb="http://www.openswatchbook.org/uri/2009/osb"
   xmlns:dc="http://purl.org/dc/elements/1.1/"
   xmlns:cc="http://creativecommons.org/ns#"
   xmlns:rdf="http://www.w3.org/1999/02/22-rdf-syntax-ns#"
   xmlns:svg="http://www.w3.org/2000/svg"
   xmlns="http://www.w3.org/2000/svg"
   id="svg3336"
   version="1.1"
   viewBox="0 0 161 36"
   height="36pt"
   width="161pt">
  <metadata
     id="metadata3358">
    <rdf:RDF>
      <cc:Work
         rdf:about="">
        <dc:format>image/svg+xml</dc:format>
        <dc:type
           rdf:resource="http://purl.org/dc/dcmitype/StillImage" />
        <dc:title></dc:title>
      </cc:Work>
    </rdf:RDF>
  </metadata>
  <defs
     id="defs3356">
    <linearGradient
       osb:paint="solid"
       id="linearGradient4540">
      <stop
         id="stop4538"
         offset="0"
         style="stop-color:#f7ffbb;stop-opacity:1;" />
    </linearGradient>
    <linearGradient
       osb:paint="solid"
       id="linearGradient4151">
      <stop
         id="stop4153"
         offset="0"
         style="stop-color:#ffffff;stop-opacity:1;" />
    </linearGradient>
  </defs>
  <path
     id="path3340"
     d="M 45.101562,0.45507812 C 42.98219,0.76205343 41.049147,2.0714146 40.357422,4.3222656 l -0.0098,0.033203 -0.0059,0.03125 C 39.639813,8.5685377 39.169883,12.792881 38.75,16.990234 c -8.5e-5,6.11e-4 8.5e-5,0.0013 0,0.002 -0.09682,0.69899 0.04116,1.487518 0.412109,2.158203 0.370337,0.669568 1.041871,1.238693 1.923829,1.248047 2.974183,0.199812 5.968439,0.200597 8.941406,0.0098 h 0.0059 0.0059 c 1.061718,-0.09308 1.899027,-0.664528 2.425782,-1.419922 0.526754,-0.755393 0.77111,-1.68743 0.742187,-2.591797 -0.02892,-0.904366 -0.335402,-1.798096 -0.982422,-2.43164 -0.516365,-0.505611 -1.292039,-0.726662 -2.171875,-0.72461 0.220213,-1.586902 0.428329,-3.173205 0.634766,-4.7578121 1.319932,-0.019548 2.71837,-0.013108 3.962891,0.3046875 1.374564,0.3510028 2.536067,1.0053009 3.302734,2.2675786 2.383005,4.167381 1.486233,10.312882 -2.126953,13.52539 -2.05389,1.575835 -4.438652,1.958374 -6.996094,1.990234 -2.562628,0.03193 -5.265593,-0.300706 -7.851562,-0.05859 l 0.142578,0.0078 c -0.943583,-0.184042 -1.825716,0.06425 -2.507813,0.552735 -0.682096,0.488484 -1.180448,1.204394 -1.457031,1.988281 -0.276583,0.783887 -0.334886,1.644671 -0.07813,2.435547 0.256761,0.790876 0.852798,1.498039 1.773437,1.884765 l 0.09961,0.04102 0.105469,-0.002 c 7.608593,-0.187989 16.228463,1.532126 23.333984,-2.90625 7.128924,-4.273255 10.212439,-14.011196 6.779297,-21.5703126 l -0.0039,-0.00781 -0.0039,-0.00781 C 65.858568,2.2794862 57.338265,0.07794554 50.669922,2.4023438 49.225473,0.848795 47.105102,0.16488035 45.101562,0.45507812 Z m 0.1875,0.99609378 C 47.06969,1.2056472 49.00358,1.7858007 50.1875,3.2363281 l 0.226562,0.2753907 0.333985,-0.1230469 c 6.25283,-2.3062136 14.436079,-0.2031773 17.513672,5.9765625 3.200119,7.0569696 0.270166,16.3069316 -6.392578,20.2949216 l -0.0059,0.0039 -0.0039,0.002 c -6.646344,4.151557 -14.932411,2.590699 -22.65625,2.755859 -0.636959,-0.28418 -1.003209,-0.708835 -1.173828,-1.234375 -0.175739,-0.541312 -0.143105,-1.190059 0.07031,-1.794922 0.213417,-0.604863 0.6053,-1.156609 1.095703,-1.507812 C 39.685716,27.533562 40.25827,27.369042 40.929688,27.5 L 41,27.513672 l 0.07227,-0.0059 c 2.43403,-0.227887 5.114659,0.09558 7.769531,0.0625 2.654871,-0.03307 5.314127,-0.438977 7.607422,-2.205078 l 0.01367,-0.0098 0.01367,-0.01172 c 4.03306,-3.569731 4.991758,-10.166053 2.341797,-14.792969 l -0.002,-0.0039 -0.0039,-0.0059 C 57.88913,9.016636 56.439521,8.2118837 54.898438,7.8183594 53.357354,7.424835 51.704559,7.4139201 50.242188,7.4492188 l -0.427735,0.011719 -0.05469,0.4238281 c -0.25,1.92 -0.500006,3.8392314 -0.769532,5.7558594 l -0.0957,0.679687 0.675781,-0.117187 c 0.941474,-0.163542 1.536786,0.06698 1.955079,0.476563 0.418293,0.409581 0.659313,1.049913 0.68164,1.748046 0.02233,0.698134 -0.177067,1.43555 -0.5625,1.988282 -0.384578,0.551505 -0.928833,0.926003 -1.689453,0.99414 -2.936027,0.188126 -5.89129,0.188537 -8.826172,-0.0098 h -0.01563 -0.01367 c -0.47472,-0.0035 -0.808778,-0.275646 -1.0625,-0.734375 -0.253722,-0.45873 -0.35956,-1.086557 -0.296875,-1.53711 l 0.002,-0.0098 v -0.0098 c 0.417929,-4.1793 0.887791,-8.3704454 1.580078,-12.5058594 0.57312,-1.8384385 2.191775,-2.9075921 3.966796,-3.1523437 z"
 />
  <path
     id="path3342"
     d="M 78.732422,0.4609375 C 77.995439,0.44475921 77.249989,0.53692213 76.525391,0.72460938 73.626996,1.4753583 70.95743,3.6997916 70.15625,6.7109375 l -0.150391,0.5683594 0.583985,0.058594 c 0.576937,0.057694 1.578376,0.1630987 2.332031,0.2402344 0.132805,4.406028 -0.986238,8.835052 -1.339844,13.382813 L 71.539062,21.5 h 0.541016 c 3.484269,0 6.991845,0.05973 10.513672,-0.111328 l 0.466797,-0.02148 0.0098,-0.466797 C 83.177718,15.422711 85.55095,9.6796819 84.390625,3.9609375 L 84.375,3.8867188 84.337891,3.8183594 C 83.077622,1.5265962 80.943369,0.50947237 78.732422,0.4609375 Z m -0.03125,0.984375 c 1.878052,0.017471 3.617508,0.8574054 4.714844,2.7988281 1.009447,5.1451069 -1.055789,10.6066784 -1.28125,16.1503904 -3.153256,0.137282 -6.316575,0.104715 -9.484375,0.09961 0.405498,-4.390076 1.524717,-8.821771 1.298828,-13.3886722 L 73.927734,6.6738281 73.5,6.6328125 c -0.533615,-0.05261 -1.401577,-0.1452333 -2.128906,-0.2207031 0.868081,-2.3067298 3.028701,-4.1029116 5.40625,-4.71875 0.643526,-0.1666878 1.290459,-0.2539389 1.923828,-0.2480469 z"
     style="color:#000000;font-style:normal;font-variant:normal;font-weight:normal;font-stretch:normal;font-size:medium;line-height:normal;font-family:sans-serif;font-variant-ligatures:normal;font-variant-position:normal;font-variant-caps:normal;font-variant-numeric:normal;font-variant-alternates:normal;font-feature-settings:normal;text-indent:0;text-align:start;text-decoration:none;text-decoration-line:none;text-decoration-style:solid;text-decoration-color:#000000;letter-spacing:normal;word-spacing:normal;text-transform:none;writing-mode:lr-tb;direction:ltr;text-orientation:mixed;dominant-baseline:auto;baseline-shift:baseline;text-anchor:start;white-space:normal;shape-padding:0;clip-rule:nonzero;display:inline;overflow:visible;visibility:visible;opacity:1;isolation:auto;mix-blend-mode:normal;color-interpolation:sRGB;color-interpolation-filters:linearRGB;solid-color:#000000;solid-opacity:1;vector-effect:none;fill-opacity:1;fill-rule:nonzero;stroke:none;stroke-width:1;stroke-linecap:butt;stroke-linejoin:miter;stroke-miterlimit:4;stroke-dasharray:none;stroke-dashoffset:0;stroke-opacity:1;color-rendering:auto;image-rendering:auto;shape-rendering:auto;text-rendering:auto;enable-background:accumulate;fill:#ffffff" />
  <path
     id="path3344"
     d="M 94.796875,0.3984375 C 93.789694,0.35189408 92.778074,0.52684619 91.849609,0.953125 88.917877,1.8867111 87.348665,4.5950995 86.087891,6.9765625 l -0.427735,0.8085937 0.91211,-0.076172 c 0.526199,-0.04385 1.495076,-0.1096236 2.126953,-0.1523438 l 0.601562,0.7324219 C 89.13109,13.455433 87.46159,18.691667 88.234375,24.111328 l 0.0039,0.01758 0.0039,0.01953 c 1.367834,6.170918 7.475269,10.483938 13.673832,10.380859 6.4e-4,-1.1e-5 0.001,1.1e-5 0.002,0 5.34365,-0.01093 11.5548,-0.894466 15.37891,-5.28125 l 0.004,-0.0059 0.006,-0.0039 c 4.07011,-4.952658 3.72875,-11.604368 4.63672,-17.289062 l 0.006,-0.0293 v -0.03125 c 0.0612,-1.576887 0.63023,-3.5363459 0.7168,-5.4238282 0.0433,-0.9437412 -0.0365,-1.8826128 -0.4043,-2.7460938 -0.36778,-0.863481 -1.03257,-1.6335507 -2.0586,-2.2050781 l -0.11914,-0.066406 -0.13476,0.00195 c -3.96075,0.08979 -7.93572,0.071668 -11.90234,0.011719 l -0.21485,-0.00391 -0.15039,0.1542969 c -0.50409,0.5182214 -1.19644,1.0729344 -1.72266,1.7773438 -0.5217,0.6983723 -0.85644,1.6208219 -0.55859,2.6679687 0.15948,0.7749464 0.52564,1.3685446 1.02344,1.75 0.50339,0.3857409 1.10443,0.5632729 1.71289,0.6503906 1.0412,0.1490753 2.07282,0.067082 2.93945,0.1015626 -0.75168,5.2267772 -0.74378,10.5463892 -2.14453,15.4843752 -0.64595,2.043631 -2.63096,3.268874 -4.61719,3.40625 -1.97809,0.136813 -3.8514,-0.744593 -4.478512,-2.97461 -0.778944,-6.035793 1.852772,-12.200142 1.443362,-18.6074215 l -0.002,-0.013672 -0.002,-0.015625 C 101.01161,3.7056257 99.549599,2.0533345 97.728516,1.1582031 96.817974,0.71063746 95.810744,0.44529002 94.796875,0.3984375 Z m -0.04102,1.0019531 c 0.869569,0.040648 1.744995,0.2688157 2.533203,0.65625 1.57449,0.7739213 2.773828,2.1537314 2.992188,3.8984375 0.3814,6.0907959 -2.280274,12.2864289 -1.4375,18.6894529 l 0.0059,0.03516 0.0078,0.0332 c 0.741999,2.706113 3.175518,3.896902 5.525388,3.734375 2.34988,-0.162528 4.71842,-1.613648 5.50391,-4.107422 l 0.002,-0.0059 0.002,-0.0078 c 1.50697,-5.30491 1.41325,-10.877099 2.23438,-16.169922 l 0.0781,-0.5136719 -0.51562,-0.058594 c -1.10461,-0.1263987 -2.39013,0.028577 -3.4082,-0.1171875 -0.50904,-0.072882 -0.93582,-0.2138659 -1.24805,-0.453125 -0.31223,-0.2392591 -0.5416,-0.5747835 -0.66016,-1.171875 l -0.006,-0.021484 -0.006,-0.021484 c -0.21836,-0.7415957 -0.0184,-1.2519094 0.40039,-1.8125 0.38129,-0.5104073 0.96506,-1.0046329 1.49218,-1.5273437 3.836,0.056531 7.682,0.073849 11.52344,-0.00977 0.80177,0.4679354 1.29137,1.0163746 1.56641,1.6621093 0.28535,0.6699565 0.36538,1.4516318 0.32617,2.3066407 -0.0784,1.7100176 -0.64799,3.6604802 -0.7168,5.4335932 l 0.006,-0.06055 c -0.93156,5.832358 -0.65602,12.217844 -4.41992,16.804687 -3.51463,4.02653 -9.39661,4.923703 -14.62891,4.933594 h -0.002 -0.004 C 96.185706,33.625214 90.480214,29.585394 89.222656,23.943359 88.49305,18.770932 90.177957,13.552106 90.320312,8.1425781 l 0.0039,-0.1875 -1.181641,-1.4316406 -0.255859,0.017578 c -0.345482,0.023423 -0.88339,0.062665 -1.40625,0.099609 1.154949,-2.0723322 2.489478,-4.0659791 4.707031,-4.7539062 l 0.0332,-0.00977 0.0293,-0.013672 c 0.771501,-0.3574697 1.636291,-0.5035381 2.505859,-0.4628906 z"
     style="color:#000000;font-style:normal;font-variant:normal;font-weight:normal;font-stretch:normal;font-size:medium;line-height:normal;font-family:sans-serif;font-variant-ligatures:normal;font-variant-position:normal;font-variant-caps:normal;font-variant-numeric:normal;font-variant-alternates:normal;font-feature-settings:normal;text-indent:0;text-align:start;text-decoration:none;text-decoration-line:none;text-decoration-style:solid;text-decoration-color:#000000;letter-spacing:normal;word-spacing:normal;text-transform:none;writing-mode:lr-tb;direction:ltr;text-orientation:mixed;dominant-baseline:auto;baseline-shift:baseline;text-anchor:start;white-space:normal;shape-padding:0;clip-rule:nonzero;display:inline;overflow:visible;visibility:visible;opacity:1;isolation:auto;mix-blend-mode:normal;color-interpolation:sRGB;color-interpolation-filters:linearRGB;solid-color:#000000;solid-opacity:1;vector-effect:none;fill-opacity:1;fill-rule:nonzero;stroke:none;stroke-width:1;stroke-linecap:butt;stroke-linejoin:miter;stroke-miterlimit:4;stroke-dasharray:none;stroke-dashoffset:0;stroke-opacity:1;color-rendering:auto;image-rendering:auto;shape-rendering:auto;text-rendering:auto;enable-background:accumulate;fill:#ffffff" />
  <path
     id="path3346"
     d="M 3.8173828,1.4560546 3.6650391,1.6186523 C 3.1815533,2.1346804 2.4818049,2.6921895 1.9511718,3.4013671 1.424707,4.1049742 1.0894147,5.0462972 1.4355469,6.0981445 c 0.163717,0.8321558 0.5677497,1.4575159 1.1191406,1.8354491 0.5635291,0.386253 1.2325364,0.5300273 1.9086914,0.583008 0.9831139,0.077032 1.8742598,0.00544 2.7304687,-0.014648 -3.412928,3.6291064 -5.4323179,8.5101654 -5.1225585,13.5395504 0.044048,4.365909 2.2786251,9.004777 6.5478518,10.769531 v 0.0015 c 6.2088621,2.546964 13.4865911,2.277862 19.5981441,-0.354492 l 0.0059,-0.0015 0.0044,-0.0029 C 35.209743,29.247816 38.126597,20.920826 37.286133,13.772461 36.615594,7.2007561 30.79248,1.6454741 24.13916,1.5307617 17.425748,1.4205415 10.724665,1.5802002 4.0385741,1.4604492 Z m 0.4233398,1.0048829 c 6.6402334,0.1129459 13.2673654,-0.039732 19.8808584,0.068848 6.104153,0.105244 11.556798,5.3045843 12.169923,11.3496085 l 0.0015,0.0044 v 0.0044 c 0.798778,6.789608 -2.003197,14.678583 -8.47705,17.654297 -5.867333,2.525428 -12.886639,2.776513 -18.8159181,0.344238 v 0.0015 C 5.1916323,30.313933 3.1072471,26.057329 3.0688476,22.025391 v -0.01319 -0.01318 C 2.7489459,16.899983 4.9159247,11.854935 8.6220704,8.3627931 L 9.3984374,7.6318356 8.3393556,7.5029294 C 7.1441577,7.3570368 5.703276,7.6115774 4.5410156,7.5205079 3.9598853,7.4749728 3.4695519,7.3483954 3.1201171,7.1088866 2.7706824,6.8693778 2.521221,6.5259994 2.4023437,5.8710937 l -0.00732,-0.036621 -0.011719,-0.035156 C 2.1331924,5.0612918 2.3292952,4.5640547 2.7509766,4.0004882 3.1331124,3.4897734 3.7207782,2.9909037 4.2407226,2.4609375 Z M 20.90625,7.4443358 c -0.926606,0.023534 -1.8528,0.2442801 -2.699707,0.6694333 l -0.02051,0.010254 -0.01758,0.011719 c -2.056668,1.2701385 -3.246431,3.2313099 -3.962403,5.3569329 -0.715971,2.125624 -0.97696,4.432535 -1.192383,6.496583 l -0.0029,0.01465 v 0.01465 c -0.05567,1.260247 -0.0654,2.707092 0.243164,4.07666 0.308567,1.369569 0.954735,2.682844 2.21045,3.555177 l 0.01758,0.01318 0.01904,0.01025 c 4.05326,2.32387 9.704204,0.01544 11.151854,-4.395997 1.434363,-4.122756 2.124972,-9.203286 -0.483398,-13.180663 l -0.0015,-0.0015 C 24.997659,8.2926561 22.943115,7.3926034 20.90625,7.4443358 Z m 0.02637,0.9990231 c 1.72674,-0.043855 3.437788,0.7167187 4.398926,2.1987311 l 0.0015,0.0015 c 2.349169,3.58059 1.759124,8.336336 0.375,12.312012 l -0.0015,0.0044 -0.0015,0.0044 c -1.231744,3.759575 -6.24033,5.805306 -9.685547,3.848145 -0.990945,-0.697554 -1.518107,-1.730046 -1.790039,-2.937012 -0.273492,-1.21389 -0.273866,-2.579937 -0.219726,-3.808594 6.2e-5,-0.0014 -6.3e-5,-0.003 0,-0.0044 0.214039,-2.048135 0.477895,-4.272784 1.144042,-6.250488 0.666492,-1.978727 1.721751,-3.688928 3.521485,-4.8090826 0.704311,-0.3499328 1.479901,-0.5398253 2.257324,-0.5595705 z"
     style="color:#000000;font-style:normal;font-variant:normal;font-weight:normal;font-stretch:normal;font-size:medium;line-height:normal;font-family:sans-serif;font-variant-ligatures:normal;font-variant-position:normal;font-variant-caps:normal;font-variant-numeric:normal;font-variant-alternates:normal;font-feature-settings:normal;text-indent:0;text-align:start;text-decoration:none;text-decoration-line:none;text-decoration-style:solid;text-decoration-color:#000000;letter-spacing:normal;word-spacing:normal;text-transform:none;writing-mode:lr-tb;direction:ltr;text-orientation:mixed;dominant-baseline:auto;baseline-shift:baseline;text-anchor:start;white-space:normal;shape-padding:0;clip-rule:nonzero;display:inline;overflow:visible;visibility:visible;opacity:1;isolation:auto;mix-blend-mode:normal;color-interpolation:sRGB;color-interpolation-filters:linearRGB;solid-color:#000000;solid-opacity:1;vector-effect:none;fill-opacity:1;fill-rule:nonzero;stroke:none;stroke-width:1;stroke-linecap:butt;stroke-linejoin:miter;stroke-miterlimit:4;stroke-dasharray:none;stroke-dashoffset:0;stroke-opacity:1;color-rendering:auto;image-rendering:auto;shape-rendering:auto;text-rendering:auto;enable-background:accumulate;fill:#ffffff" />
  <path
     id="path3348"
     d="m 125.84033,1.4560546 -0.15088,0.1567383 c -0.49622,0.5149446 -1.19469,1.0689979 -1.72558,1.7739258 -0.52724,0.7000554 -0.86621,1.6319592 -0.542,2.6835937 0.1623,0.8407653 0.56724,1.4712052 1.12061,1.854492 0.56361,0.3903772 1.23352,0.5381692 1.91162,0.593262 0.98561,0.080077 1.88361,0.00554 2.74658,-0.016113 -3.39404,3.6005106 -5.41938,8.4513596 -5.12841,13.4501946 0.0237,4.405552 2.25689,9.105992 6.57861,10.870606 6.21894,2.546899 13.49724,2.268825 19.61865,-0.38379 l 0.006,-0.0029 0.006,-0.0015 c 6.94127,-3.216555 9.82447,-11.50453 9.01437,-18.621087 -0.66003,-6.6122462 -6.51463,-12.1887006 -13.19824,-12.2929692 -6.69198,-0.090161 -13.37254,0.0597 -20.03907,-0.060059 z m 0.42041,1.003418 c 6.61981,0.1131242 13.22733,-0.028795 19.82226,0.060059 6.13386,0.095692 11.61461,5.3164064 12.21827,11.4008784 l 0.001,0.0029 v 0.0044 c 0.76979,6.762384 -2.00413,14.612673 -8.44042,17.597168 -0.001,4.67e-4 -0.002,9.98e-4 -0.003,0.0015 -5.87625,2.54277 -12.89335,2.802127 -18.83056,0.370605 -3.8554,-1.574208 -5.93978,-5.887568 -5.95898,-9.959472 v -0.01318 -0.01318 c -0.30044,-5.068613 1.87723,-10.084338 5.56347,-13.5468747 l 0.78369,-0.7368165 -1.06933,-0.124512 c -1.20185,-0.1397499 -2.64717,0.113643 -3.81153,0.019043 -0.58218,-0.0473 -1.07348,-0.177743 -1.42382,-0.4204102 -0.35036,-0.2426672 -0.60159,-0.5904253 -0.72071,-1.2509766 l -0.006,-0.030762 -0.0103,-0.030762 c -0.23412,-0.7393542 -0.0351,-1.2402306 0.38673,-1.8002929 0.38357,-0.5093046 0.97226,-1.0047706 1.49853,-1.5292969 z m 16.6333,4.9848632 c -0.91469,0.024098 -1.82993,0.2404063 -2.66748,0.6591801 l -0.0176,0.00879 -0.019,0.011719 c -2.06807,1.2599783 -3.26268,3.2212691 -3.98144,5.3510751 -0.71877,2.129805 -0.9799,4.445135 -1.19532,6.51416 l -0.003,0.01465 v 0.01465 c -0.0557,1.255379 -0.0659,2.696733 0.24023,4.062012 0.30614,1.365279 0.94763,2.676526 2.19288,3.549317 l 0.0176,0.01172 0.0176,0.01025 c 4.02237,2.346385 9.64451,0.08199 11.13427,-4.268555 1.48587,-4.17544 2.19617,-9.352562 -0.49804,-13.362304 -1.17834,-1.7523948 -3.20859,-2.6296709 -5.22071,-2.5766604 z m 0.0264,0.9990231 c 1.70446,-0.044905 3.39857,0.696672 4.36523,2.1342781 2.4246,3.608485 1.81512,8.451007 0.38232,12.474609 v 0.0029 l -0.001,0.0029 c -1.26788,3.702591 -6.24645,5.710497 -9.66357,3.735351 -0.98262,-0.697093 -1.50685,-1.72695 -1.77685,-2.931152 -0.27141,-1.210423 -0.27093,-2.571882 -0.21681,-3.79541 7e-5,-0.0014 -6e-5,-0.003 0,-0.0044 0.21405,-2.05318 0.47838,-4.285443 1.14698,-6.266602 0.66917,-1.982841 1.72965,-3.692827 3.53906,-4.8032226 0.69489,-0.3438128 1.45745,-0.5290928 2.2251,-0.5493165 z"
     style="color:#000000;font-style:normal;font-variant:normal;font-weight:normal;font-stretch:normal;font-size:medium;line-height:normal;font-family:sans-serif;font-variant-ligatures:normal;font-variant-position:normal;font-variant-caps:normal;font-variant-numeric:normal;font-variant-alternates:normal;font-feature-settings:normal;text-indent:0;text-align:start;text-decoration:none;text-decoration-line:none;text-decoration-style:solid;text-decoration-color:#000000;letter-spacing:normal;word-spacing:normal;text-transform:none;writing-mode:lr-tb;direction:ltr;text-orientation:mixed;dominant-baseline:auto;baseline-shift:baseline;text-anchor:start;white-space:normal;shape-padding:0;clip-rule:nonzero;display:inline;overflow:visible;visibility:visible;opacity:1;isolation:auto;mix-blend-mode:normal;color-interpolation:sRGB;color-interpolation-filters:linearRGB;solid-color:#000000;solid-opacity:1;vector-effect:none;fill-opacity:1;fill-rule:nonzero;stroke:none;stroke-width:1;stroke-linecap:butt;stroke-linejoin:miter;stroke-miterlimit:4;stroke-dasharray:none;stroke-dashoffset:0;stroke-opacity:1;color-rendering:auto;image-rendering:auto;shape-rendering:auto;text-rendering:auto;enable-background:accumulate;fill:#ffffff" />
</svg>
